# xmcd
#
# Track frame offsets:
#	150
#	17040
#	34250
#	51055
#	69685
#	87477
#	106337
#	119915
#	135332
#	152102
#	170577
#	190812
#	207595
#	228092
#	243315
#	260865
#	278102
#	294835
#	313097
#
# Disc length: 4401 seconds
#
# Revision: 0
# Processed by: cddbd v1.5.2PL0 Copyright (c) Steve Scherf et al.
# Submitted via: dBpowerAMP V4.0
#
DISCID=1b112f13
DTITLE=Jam - The Greates Hits 1994-2000
DYEAR=2000
DGENRE=Pop
TTITLE0=Veel üks kord
TTITLE1=Saladus
TTITLE2=Olen elult kõik saand
TTITLE3=See 5
TTITLE4=Suvine päev
TTITLE5=Tants, mida tantsisime
TTITLE6=Ootan tuult
TTITLE7=Maasikas
TTITLE8=Petlik õnn
TTITLE9=Ootus
TTITLE10=See on nii
TTITLE11=Naerjad vihmas
TTITLE12=Lahkumispidu
TTITLE13=Sünnipäevalaul
TTITLE14=Miks minema läed
TTITLE15=Me viimane öö
TTITLE16=Mida küll soovin ma
TTITLE17=Kuni veel sind hoida suudan
TTITLE18=Kui mõistad mind 2000
EXTD=By Dandee
EXTT0=
EXTT1=
EXTT2=
EXTT3=
EXTT4=
EXTT5=
EXTT6=
EXTT7=
EXTT8=
EXTT9=
EXTT10=
EXTT11=
EXTT12=
EXTT13=
EXTT14=
EXTT15=
EXTT16=
EXTT17=
EXTT18=
PLAYORDER=
